<!DOCTYPE svg PUBLIC "-//W3C//DTD SVG 1.1//EN" "http://www.w3.org/Graphics/SVG/1.1/DTD/svg11.dtd">
<!-- Uploaded to: SVG Repo, www.svgrepo.com, Transformed by: SVG Repo Mixer Tools -->
<svg fill="#15803d" version="1.1" id="Capa_1" xmlns="http://www.w3.org/2000/svg" xmlns:xlink="http://www.w3.org/1999/xlink" width="800px" height="800px" viewBox="0 0 892.48 892.48" xml:space="preserve">
<g id="SVGRepo_bgCarrier" stroke-width="0"/>
<g id="SVGRepo_tracerCarrier" stroke-linecap="round" stroke-linejoin="round"/>
<g id="SVGRepo_iconCarrier"> <g> <g> <path d="M562.715,573.95c-39.2,10-79.9,15.1-121.4,15.1c-58.2,0-116.5-9.9-173.2-29.4c-21.8-7.5-37.2-27.199-39-50.199 c-3.4-41.4-2.1-82.801,3.9-123.101c6-40.6,16.7-79.9,31.8-117c6.3-15.4,13.4-30.5,21.1-45.1 c-240.2,58.5-240.8,249.3-231.7,322.399c0.7,5.9,9.2,6.4,10.5,0.5c44.2-192.399,178.7-81.8,64.5,15.301 c-147.7,125.699-136.6,260.5-119.7,324.3c1.6,5.899,10.2,5,10.5-1.101c2.3-40.8,22.2-102.899,115.6-129.3 C231.415,729.149,442.115,737.75,562.715,573.95z"/> <path d="M868.515,29.75c-53.9-18.5-109.8-28-165.101-28c-98.8,0-195.899,30.3-277,93.4c-44.399,34.5-80.399,76-107.899,122.2 c-51,85.6-72.9,187.2-64.4,290.101c1.101,13.1,9.8,24.3,22.2,28.6c53.9,18.5,109.8,28,165.1,28c48.5,0,96.5-7.3,142.5-22.2 c47.7-15.399,93.2-39.1,134.5-71.2c126.4-98.3,185.301-253.8,172.301-412.3C889.614,45.25,880.914,34.049,868.515,29.75z M745.215,240.649c-4.601,3.5-10,5.3-15.301,5.3c-7.5,0-14.8-3.3-19.8-9.7l-14-18l-88.8,69l8.2,10.5c3.2,4.1,4.899,8.9,5.2,13.8 c0.5,8-2.801,16-9.601,21.3c-4.6,3.5-10,5.3-15.3,5.3c-7.5,0-14.8-3.3-19.8-9.7l-8.2-10.5l-88.8,69l8.2,10.5 c8.5,10.899,6.5,26.6-4.4,35.1c-4.6,3.5-10,5.3-15.3,5.3c-7.5,0-14.8-3.3-19.8-9.7l-46.9-60.5c-8.5-10.899-6.5-26.6,4.4-35.1 c10.899-8.5,26.6-6.5,35.1,4.4l8.2,10.5l88.8-69l-8.2-10.5c-8.5-10.9-6.5-26.6,4.4-35.1c10.899-8.5,26.6-6.5,35.1,4.4l3.7,4.8 l4.5,5.8l88.8-69l-14-18c-8.5-10.9-6.5-26.6,4.4-35.1c10.899-8.5,26.6-6.5,35.1,4.4l58.601,75.4 C758.114,216.449,756.114,232.149,745.215,240.649z"/> <path d="M556.715,634.649c0.5-4.5-5-7-8-3.6c-5.5,6.2-11.601,12.2-14.4,15.2c-44.2,48.6-120,61.5-160.099,115.5 c-16.601,22.3-25.601,46-33.301,75.7c-1.1,4.399,4.2,7.6,7.601,4.5c9.5-8.7,22.6-20.2,29.6-24.101c39.8-22.399,93-30.2,128.7-59.6 C544.914,726.95,551.215,681.149,556.715,634.649z"/> </g> </g> </g>
</svg>